<svg width="48" height="49" viewBox="0 0 48 49" fill="none" xmlns="http://www.w3.org/2000/svg">
<path d="M20 21.8333H10.6667C10.3131 21.8333 9.97395 21.6928 9.7239 21.4427C9.47385 21.1927 9.33337 20.8535 9.33337 20.4999V11.1666C9.33337 10.813 9.47385 10.4738 9.7239 10.2238C9.97395 9.97373 10.3131 9.83325 10.6667 9.83325H20C20.3537 9.83325 20.6928 9.97373 20.9429 10.2238C21.1929 10.4738 21.3334 10.813 21.3334 11.1666V20.4999C21.3334 20.8535 21.1929 21.1927 20.9429 21.4427C20.6928 21.6928 20.3537 21.8333 20 21.8333Z" fill="#7C3AED"/>
<path d="M20 39.1665H10.6667C10.3131 39.1665 9.97395 39.026 9.7239 38.776C9.47385 38.5259 9.33337 38.1868 9.33337 37.8332V28.4998C9.33337 28.1462 9.47385 27.8071 9.7239 27.557C9.97395 27.307 10.3131 27.1665 10.6667 27.1665H20C20.3537 27.1665 20.6928 27.307 20.9429 27.557C21.1929 27.8071 21.3334 28.1462 21.3334 28.4998V37.8332C21.3334 38.1868 21.1929 38.5259 20.9429 38.776C20.6928 39.026 20.3537 39.1665 20 39.1665Z" fill="#7C3AED"/>
<path d="M25.3334 11.1665H38.6667V13.8332H25.3334V11.1665Z" fill="#1DB5BE"/>
<path d="M38.6667 28.5H25.3334V31.1667H38.6667V28.5Z" fill="#1DB5BE"/>
<path d="M38.6667 35.1665H25.3334V37.8332H38.6667V35.1665Z" fill="#C4B5FD"/>
<path d="M38.6667 17.8333H25.3334V20.4999H38.6667V17.8333Z" fill="#C4B5FD"/>
</svg>
